<?xml version="1.0" encoding="UTF-8" standalone="no"?><svg xmlns="http://www.w3.org/2000/svg" xmlns:xlink="http://www.w3.org/1999/xlink" contentScriptType="application/ecmascript" contentStyleType="text/css" height="781px" preserveAspectRatio="none" style="width:1624px;height:781px;" version="1.1" viewBox="0 0 1624 781" width="1624px" zoomAndPan="magnify"><defs><filter height="300%" id="f1ojqzjhqb7p1s" width="300%" x="-1" y="-1"><feGaussianBlur result="blurOut" stdDeviation="2.0"/><feColorMatrix in="blurOut" result="blurOut2" type="matrix" values="0 0 0 0 0 0 0 0 0 0 0 0 0 0 0 0 0 0 .4 0"/><feOffset dx="4.0" dy="4.0" in="blurOut2" result="blurOut3"/><feBlend in="SourceGraphic" in2="blurOut3" mode="normal"/></filter></defs><g><!--MD5=[d5ac3844f66b12d9e08170e47495e096]
cluster app--><polygon fill="#FFFFFF" filter="url(#f1ojqzjhqb7p1s)" points="406,24,456,24,463,53.2813,810,53.2813,810,769,406,769,406,24" style="stroke: #000000; stroke-width: 1.5;"/><line style="stroke: #000000; stroke-width: 1.5;" x1="406" x2="463" y1="53.2813" y2="53.2813"/><text fill="#000000" font-family="sans-serif" font-size="20" font-weight="bold" lengthAdjust="spacingAndGlyphs" textLength="44" x="410" y="44.5645">app</text><!--MD5=[a59c1d05a8f6fb54290705d41e67acbe]
cluster interface--><polygon fill="#FFFFFF" filter="url(#f1ojqzjhqb7p1s)" points="490,612,603,612,610,641.2813,682,641.2813,682,745,490,745,490,612" style="stroke: #000000; stroke-width: 1.5;"/><line style="stroke: #000000; stroke-width: 1.5;" x1="490" x2="610" y1="641.2813" y2="641.2813"/><text fill="#000000" font-family="sans-serif" font-size="20" font-weight="bold" lengthAdjust="spacingAndGlyphs" textLength="107" x="494" y="632.5645">interface</text><!--MD5=[c60679dfbe80eab0cae5e3add7b10464]
cluster src--><polygon fill="#FFFFFF" filter="url(#f1ojqzjhqb7p1s)" points="995,24,1036,24,1043,53.2813,1111,53.2813,1111,157,995,157,995,24" style="stroke: #000000; stroke-width: 1.5;"/><line style="stroke: #000000; stroke-width: 1.5;" x1="995" x2="1043" y1="53.2813" y2="53.2813"/><text fill="#000000" font-family="sans-serif" font-size="20" font-weight="bold" lengthAdjust="spacingAndGlyphs" textLength="35" x="999" y="44.5645">src</text><!--MD5=[5ad0782054681e3c5074e5202be1854f]
cluster xf--><polygon fill="#FFFFFF" filter="url(#f1ojqzjhqb7p1s)" points="834,348,862,348,869,377.2813,1602,377.2813,1602,555,834,555,834,348" style="stroke: #000000; stroke-width: 1.5;"/><line style="stroke: #000000; stroke-width: 1.5;" x1="834" x2="869" y1="377.2813" y2="377.2813"/><text fill="#000000" font-family="sans-serif" font-size="20" font-weight="bold" lengthAdjust="spacingAndGlyphs" textLength="22" x="838" y="368.5645">xf</text><!--MD5=[bbf173ce39aac2f0afe003544c919d1e]
cluster include--><polygon fill="#FFFFFF" filter="url(#f1ojqzjhqb7p1s)" points="1325,398,1415,398,1422,427.2813,1578,427.2813,1578,531,1325,531,1325,398" style="stroke: #000000; stroke-width: 1.5;"/><line style="stroke: #000000; stroke-width: 1.5;" x1="1325" x2="1422" y1="427.2813" y2="427.2813"/><text fill="#000000" font-family="sans-serif" font-size="20" font-weight="bold" lengthAdjust="spacingAndGlyphs" textLength="84" x="1329" y="418.5645">include</text><!--MD5=[73971f32be52cdf61b7cb99432aec3b7]
cluster mdw--><polygon fill="#FFFFFF" filter="url(#f1ojqzjhqb7p1s)" points="22,389,81,389,88,418.2813,382,418.2813,382,540,22,540,22,389" style="stroke: #000000; stroke-width: 1.5;"/><line style="stroke: #000000; stroke-width: 1.5;" x1="22" x2="88" y1="418.2813" y2="418.2813"/><text fill="#000000" font-family="sans-serif" font-size="20" font-weight="bold" lengthAdjust="spacingAndGlyphs" textLength="53" x="26" y="409.5645">mdw</text><!--MD5=[a4d0c421709bf73b81567e68c7bf12b9]
cluster middlewares--><polygon fill="#FFFFFF" filter="url(#f1ojqzjhqb7p1s)" points="1195,24,1347,24,1354,53.2813,1357,53.2813,1357,157,1195,157,1195,24" style="stroke: #000000; stroke-width: 1.5;"/><line style="stroke: #000000; stroke-width: 1.5;" x1="1195" x2="1354" y1="53.2813" y2="53.2813"/><text fill="#000000" font-family="sans-serif" font-size="20" font-weight="bold" lengthAdjust="spacingAndGlyphs" textLength="146" x="1199" y="44.5645">middlewares</text><!--MD5=[dcda66dabdb739ec36f1175150e3c9d5]
class Factory--><rect fill="#FEFECE" filter="url(#f1ojqzjhqb7p1s)" height="49.2813" id="Factory" style="stroke: #A80036; stroke-width: 1.5;" width="109" x="448.5" y="92"/><ellipse cx="463.5" cy="108.6406" fill="#ADD1B2" rx="11" ry="11" style="stroke: #A80036; stroke-width: 1.0;"/><path d="M465.8438,104.3125 C464.9063,103.875 464.3125,103.7344 463.4375,103.7344 C460.8125,103.7344 458.8125,105.8125 458.8125,108.5313 L458.8125,109.6563 C458.8125,112.2344 460.9219,114.125 463.8125,114.125 C465.0313,114.125 466.1875,113.8281 466.9375,113.2813 C467.5156,112.875 467.8438,112.4219 467.8438,112.0313 C467.8438,111.5781 467.4531,111.1875 466.9844,111.1875 C466.7656,111.1875 466.5625,111.2656 466.375,111.4531 C465.9219,111.9375 465.9219,111.9375 465.7344,112.0313 C465.3125,112.2969 464.625,112.4219 463.8594,112.4219 C461.8125,112.4219 460.5156,111.3281 460.5156,109.625 L460.5156,108.5313 C460.5156,106.75 461.7656,105.4375 463.5,105.4375 C464.0781,105.4375 464.6875,105.5938 465.1563,105.8438 C465.6406,106.125 465.8125,106.3438 465.9063,106.75 C465.9688,107.1563 466,107.2813 466.1406,107.4063 C466.2813,107.5469 466.5156,107.6563 466.7344,107.6563 C467,107.6563 467.2656,107.5156 467.4375,107.2969 C467.5469,107.1406 467.5781,106.9531 467.5781,106.5313 L467.5781,105.1094 C467.5781,104.6719 467.5625,104.5469 467.4688,104.3906 C467.3125,104.125 467.0313,103.9844 466.7344,103.9844 C466.4375,103.9844 466.2344,104.0781 466.0156,104.3906 L465.8438,104.3125 Z "/><text fill="#000000" font-family="sans-serif" font-size="20" lengthAdjust="spacingAndGlyphs" textLength="77" x="477.5" y="115.5645">Factory</text><line style="stroke: #A80036; stroke-width: 1.5;" x1="449.5" x2="556.5" y1="125.2813" y2="125.2813"/><line style="stroke: #A80036; stroke-width: 1.5;" x1="449.5" x2="556.5" y1="133.2813" y2="133.2813"/><!--MD5=[36b6a3ceda9c8330cf0107505e0e5600]
class Gui--><rect fill="#FEFECE" filter="url(#f1ojqzjhqb7p1s)" height="49.2813" id="Gui" style="stroke: #A80036; stroke-width: 1.5;" width="67" x="431.5" y="466"/><ellipse cx="446.5" cy="482.6406" fill="#ADD1B2" rx="11" ry="11" style="stroke: #A80036; stroke-width: 1.0;"/><path d="M448.8438,478.3125 C447.9063,477.875 447.3125,477.7344 446.4375,477.7344 C443.8125,477.7344 441.8125,479.8125 441.8125,482.5313 L441.8125,483.6563 C441.8125,486.2344 443.9219,488.125 446.8125,488.125 C448.0313,488.125 449.1875,487.8281 449.9375,487.2813 C450.5156,486.875 450.8438,486.4219 450.8438,486.0313 C450.8438,485.5781 450.4531,485.1875 449.9844,485.1875 C449.7656,485.1875 449.5625,485.2656 449.375,485.4531 C448.9219,485.9375 448.9219,485.9375 448.7344,486.0313 C448.3125,486.2969 447.625,486.4219 446.8594,486.4219 C444.8125,486.4219 443.5156,485.3281 443.5156,483.625 L443.5156,482.5313 C443.5156,480.75 444.7656,479.4375 446.5,479.4375 C447.0781,479.4375 447.6875,479.5938 448.1563,479.8438 C448.6406,480.125 448.8125,480.3438 448.9063,480.75 C448.9688,481.1563 449,481.2813 449.1406,481.4063 C449.2813,481.5469 449.5156,481.6563 449.7344,481.6563 C450,481.6563 450.2656,481.5156 450.4375,481.2969 C450.5469,481.1406 450.5781,480.9531 450.5781,480.5313 L450.5781,479.1094 C450.5781,478.6719 450.5625,478.5469 450.4688,478.3906 C450.3125,478.125 450.0313,477.9844 449.7344,477.9844 C449.4375,477.9844 449.2344,478.0781 449.0156,478.3906 L448.8438,478.3125 Z "/><text fill="#000000" font-family="sans-serif" font-size="20" lengthAdjust="spacingAndGlyphs" textLength="35" x="460.5" y="489.5645">Gui</text><line style="stroke: #A80036; stroke-width: 1.5;" x1="432.5" x2="497.5" y1="499.2813" y2="499.2813"/><line style="stroke: #A80036; stroke-width: 1.5;" x1="432.5" x2="497.5" y1="507.2813" y2="507.2813"/><!--MD5=[601cad14082181891e60822645c610f7]
class OscilloscopeController--><rect fill="#FEFECE" filter="url(#f1ojqzjhqb7p1s)" height="49.2813" id="OscilloscopeController" style="stroke: #A80036; stroke-width: 1.5;" width="258" x="536" y="228"/><ellipse cx="551" cy="244.6406" fill="#ADD1B2" rx="11" ry="11" style="stroke: #A80036; stroke-width: 1.0;"/><path d="M553.3438,240.3125 C552.4063,239.875 551.8125,239.7344 550.9375,239.7344 C548.3125,239.7344 546.3125,241.8125 546.3125,244.5313 L546.3125,245.6563 C546.3125,248.2344 548.4219,250.125 551.3125,250.125 C552.5313,250.125 553.6875,249.8281 554.4375,249.2813 C555.0156,248.875 555.3438,248.4219 555.3438,248.0313 C555.3438,247.5781 554.9531,247.1875 554.4844,247.1875 C554.2656,247.1875 554.0625,247.2656 553.875,247.4531 C553.4219,247.9375 553.4219,247.9375 553.2344,248.0313 C552.8125,248.2969 552.125,248.4219 551.3594,248.4219 C549.3125,248.4219 548.0156,247.3281 548.0156,245.625 L548.0156,244.5313 C548.0156,242.75 549.2656,241.4375 551,241.4375 C551.5781,241.4375 552.1875,241.5938 552.6563,241.8438 C553.1406,242.125 553.3125,242.3438 553.4063,242.75 C553.4688,243.1563 553.5,243.2813 553.6406,243.4063 C553.7813,243.5469 554.0156,243.6563 554.2344,243.6563 C554.5,243.6563 554.7656,243.5156 554.9375,243.2969 C555.0469,243.1406 555.0781,242.9531 555.0781,242.5313 L555.0781,241.1094 C555.0781,240.6719 555.0625,240.5469 554.9688,240.3906 C554.8125,240.125 554.5313,239.9844 554.2344,239.9844 C553.9375,239.9844 553.7344,240.0781 553.5156,240.3906 L553.3438,240.3125 Z "/><text fill="#000000" font-family="sans-serif" font-size="20" lengthAdjust="spacingAndGlyphs" textLength="226" x="565" y="251.5645">OscilloscopeController</text><line style="stroke: #A80036; stroke-width: 1.5;" x1="537" x2="793" y1="261.2813" y2="261.2813"/><line style="stroke: #A80036; stroke-width: 1.5;" x1="537" x2="793" y1="269.2813" y2="269.2813"/><!--MD5=[87c16058789fef63ce857db5f62f2d8d]
class GuiObserver--><rect fill="#FEFECE" filter="url(#f1ojqzjhqb7p1s)" height="49.2813" id="GuiObserver" style="stroke: #A80036; stroke-width: 1.5;" width="159" x="506.5" y="680"/><ellipse cx="521.5" cy="696.6406" fill="#ADD1B2" rx="11" ry="11" style="stroke: #A80036; stroke-width: 1.0;"/><path d="M523.8438,692.3125 C522.9063,691.875 522.3125,691.7344 521.4375,691.7344 C518.8125,691.7344 516.8125,693.8125 516.8125,696.5313 L516.8125,697.6563 C516.8125,700.2344 518.9219,702.125 521.8125,702.125 C523.0313,702.125 524.1875,701.8281 524.9375,701.2813 C525.5156,700.875 525.8438,700.4219 525.8438,700.0313 C525.8438,699.5781 525.4531,699.1875 524.9844,699.1875 C524.7656,699.1875 524.5625,699.2656 524.375,699.4531 C523.9219,699.9375 523.9219,699.9375 523.7344,700.0313 C523.3125,700.2969 522.625,700.4219 521.8594,700.4219 C519.8125,700.4219 518.5156,699.3281 518.5156,697.625 L518.5156,696.5313 C518.5156,694.75 519.7656,693.4375 521.5,693.4375 C522.0781,693.4375 522.6875,693.5938 523.1563,693.8438 C523.6406,694.125 523.8125,694.3438 523.9063,694.75 C523.9688,695.1563 524,695.2813 524.1406,695.4063 C524.2813,695.5469 524.5156,695.6563 524.7344,695.6563 C525,695.6563 525.2656,695.5156 525.4375,695.2969 C525.5469,695.1406 525.5781,694.9531 525.5781,694.5313 L525.5781,693.1094 C525.5781,692.6719 525.5625,692.5469 525.4688,692.3906 C525.3125,692.125 525.0313,691.9844 524.7344,691.9844 C524.4375,691.9844 524.2344,692.0781 524.0156,692.3906 L523.8438,692.3125 Z "/><text fill="#000000" font-family="sans-serif" font-size="20" lengthAdjust="spacingAndGlyphs" textLength="127" x="535.5" y="703.5645">GuiObserver</text><line style="stroke: #A80036; stroke-width: 1.5;" x1="507.5" x2="664.5" y1="713.2813" y2="713.2813"/><line style="stroke: #A80036; stroke-width: 1.5;" x1="507.5" x2="664.5" y1="721.2813" y2="721.2813"/><!--MD5=[9d73d5692fadf2e4971c1fb7a6de1ffd]
class src.main--><rect fill="#FEFECE" filter="url(#f1ojqzjhqb7p1s)" height="49.2813" id="src.main" style="stroke: #A80036; stroke-width: 1.5;" width="83" x="1011.5" y="92"/><ellipse cx="1026.5" cy="108.6406" fill="#ADD1B2" rx="11" ry="11" style="stroke: #A80036; stroke-width: 1.0;"/><path d="M1028.8438,104.3125 C1027.9063,103.875 1027.3125,103.7344 1026.4375,103.7344 C1023.8125,103.7344 1021.8125,105.8125 1021.8125,108.5313 L1021.8125,109.6563 C1021.8125,112.2344 1023.9219,114.125 1026.8125,114.125 C1028.0313,114.125 1029.1875,113.8281 1029.9375,113.2813 C1030.5156,112.875 1030.8438,112.4219 1030.8438,112.0313 C1030.8438,111.5781 1030.4531,111.1875 1029.9844,111.1875 C1029.7656,111.1875 1029.5625,111.2656 1029.375,111.4531 C1028.9219,111.9375 1028.9219,111.9375 1028.7344,112.0313 C1028.3125,112.2969 1027.625,112.4219 1026.8594,112.4219 C1024.8125,112.4219 1023.5156,111.3281 1023.5156,109.625 L1023.5156,108.5313 C1023.5156,106.75 1024.7656,105.4375 1026.5,105.4375 C1027.0781,105.4375 1027.6875,105.5938 1028.1563,105.8438 C1028.6406,106.125 1028.8125,106.3438 1028.9063,106.75 C1028.9688,107.1563 1029,107.2813 1029.1406,107.4063 C1029.2813,107.5469 1029.5156,107.6563 1029.7344,107.6563 C1030,107.6563 1030.2656,107.5156 1030.4375,107.2969 C1030.5469,107.1406 1030.5781,106.9531 1030.5781,106.5313 L1030.5781,105.1094 C1030.5781,104.6719 1030.5625,104.5469 1030.4688,104.3906 C1030.3125,104.125 1030.0313,103.9844 1029.7344,103.9844 C1029.4375,103.9844 1029.2344,104.0781 1029.0156,104.3906 L1028.8438,104.3125 Z "/><text fill="#000000" font-family="sans-serif" font-size="20" lengthAdjust="spacingAndGlyphs" textLength="51" x="1040.5" y="115.5645">main</text><line style="stroke: #A80036; stroke-width: 1.5;" x1="1012.5" x2="1093.5" y1="125.2813" y2="125.2813"/><line style="stroke: #A80036; stroke-width: 1.5;" x1="1012.5" x2="1093.5" y1="133.2813" y2="133.2813"/><polygon fill="#FFFFFF" filter="url(#f1ojqzjhqb7p1s)" points="1214.5,457,1291.5,457,1298.5,486.2813,1305.5,486.2813,1305.5,523.5625,1214.5,523.5625,1214.5,457" style="stroke: #000000; stroke-width: 1.5;"/><line style="stroke: #000000; stroke-width: 1.5;" x1="1214.5" x2="1298.5" y1="486.2813" y2="486.2813"/><text fill="#000000" font-family="sans-serif" font-size="20" font-weight="bold" lengthAdjust="spacingAndGlyphs" textLength="71" x="1218.5" y="477.5645">config</text><polygon fill="#FFFFFF" filter="url(#f1ojqzjhqb7p1s)" points="1108.5,457,1165.5,457,1172.5,486.2813,1179.5,486.2813,1179.5,523.5625,1108.5,523.5625,1108.5,457" style="stroke: #000000; stroke-width: 1.5;"/><line style="stroke: #000000; stroke-width: 1.5;" x1="1108.5" x2="1172.5" y1="486.2813" y2="486.2813"/><text fill="#000000" font-family="sans-serif" font-size="20" font-weight="bold" lengthAdjust="spacingAndGlyphs" textLength="51" x="1112.5" y="477.5645">core</text><polygon fill="#FFFFFF" filter="url(#f1ojqzjhqb7p1s)" points="956.5,457,1059.5,457,1066.5,486.2813,1073.5,486.2813,1073.5,523.5625,956.5,523.5625,956.5,457" style="stroke: #000000; stroke-width: 1.5;"/><line style="stroke: #000000; stroke-width: 1.5;" x1="956.5" x2="1066.5" y1="486.2813" y2="486.2813"/><text fill="#000000" font-family="sans-serif" font-size="20" font-weight="bold" lengthAdjust="spacingAndGlyphs" textLength="97" x="960.5" y="477.5645">doxygen</text><!--MD5=[6095f2ca6896e94b171a031b34c81354]
class Behaviour--><rect fill="#FEFECE" filter="url(#f1ojqzjhqb7p1s)" height="49.2813" id="Behaviour" style="stroke: #A80036; stroke-width: 1.5;" width="134" x="1341" y="466"/><ellipse cx="1356" cy="482.6406" fill="#ADD1B2" rx="11" ry="11" style="stroke: #A80036; stroke-width: 1.0;"/><path d="M1358.3438,478.3125 C1357.4063,477.875 1356.8125,477.7344 1355.9375,477.7344 C1353.3125,477.7344 1351.3125,479.8125 1351.3125,482.5313 L1351.3125,483.6563 C1351.3125,486.2344 1353.4219,488.125 1356.3125,488.125 C1357.5313,488.125 1358.6875,487.8281 1359.4375,487.2813 C1360.0156,486.875 1360.3438,486.4219 1360.3438,486.0313 C1360.3438,485.5781 1359.9531,485.1875 1359.4844,485.1875 C1359.2656,485.1875 1359.0625,485.2656 1358.875,485.4531 C1358.4219,485.9375 1358.4219,485.9375 1358.2344,486.0313 C1357.8125,486.2969 1357.125,486.4219 1356.3594,486.4219 C1354.3125,486.4219 1353.0156,485.3281 1353.0156,483.625 L1353.0156,482.5313 C1353.0156,480.75 1354.2656,479.4375 1356,479.4375 C1356.5781,479.4375 1357.1875,479.5938 1357.6563,479.8438 C1358.1406,480.125 1358.3125,480.3438 1358.4063,480.75 C1358.4688,481.1563 1358.5,481.2813 1358.6406,481.4063 C1358.7813,481.5469 1359.0156,481.6563 1359.2344,481.6563 C1359.5,481.6563 1359.7656,481.5156 1359.9375,481.2969 C1360.0469,481.1406 1360.0781,480.9531 1360.0781,480.5313 L1360.0781,479.1094 C1360.0781,478.6719 1360.0625,478.5469 1359.9688,478.3906 C1359.8125,478.125 1359.5313,477.9844 1359.2344,477.9844 C1358.9375,477.9844 1358.7344,478.0781 1358.5156,478.3906 L1358.3438,478.3125 Z "/><text fill="#000000" font-family="sans-serif" font-size="20" lengthAdjust="spacingAndGlyphs" textLength="102" x="1370" y="489.5645">Behaviour</text><line style="stroke: #A80036; stroke-width: 1.5;" x1="1342" x2="1474" y1="499.2813" y2="499.2813"/><line style="stroke: #A80036; stroke-width: 1.5;" x1="1342" x2="1474" y1="507.2813" y2="507.2813"/><!--MD5=[9e63078d1fa4a6e44b1bf1d3b14a76c7]
class xf--><rect fill="#FEFECE" filter="url(#f1ojqzjhqb7p1s)" height="49.2813" id="xf" style="stroke: #A80036; stroke-width: 1.5;" width="52" x="1510" y="466"/><ellipse cx="1525" cy="482.6406" fill="#ADD1B2" rx="11" ry="11" style="stroke: #A80036; stroke-width: 1.0;"/><path d="M1527.3438,478.3125 C1526.4063,477.875 1525.8125,477.7344 1524.9375,477.7344 C1522.3125,477.7344 1520.3125,479.8125 1520.3125,482.5313 L1520.3125,483.6563 C1520.3125,486.2344 1522.4219,488.125 1525.3125,488.125 C1526.5313,488.125 1527.6875,487.8281 1528.4375,487.2813 C1529.0156,486.875 1529.3438,486.4219 1529.3438,486.0313 C1529.3438,485.5781 1528.9531,485.1875 1528.4844,485.1875 C1528.2656,485.1875 1528.0625,485.2656 1527.875,485.4531 C1527.4219,485.9375 1527.4219,485.9375 1527.2344,486.0313 C1526.8125,486.2969 1526.125,486.4219 1525.3594,486.4219 C1523.3125,486.4219 1522.0156,485.3281 1522.0156,483.625 L1522.0156,482.5313 C1522.0156,480.75 1523.2656,479.4375 1525,479.4375 C1525.5781,479.4375 1526.1875,479.5938 1526.6563,479.8438 C1527.1406,480.125 1527.3125,480.3438 1527.4063,480.75 C1527.4688,481.1563 1527.5,481.2813 1527.6406,481.4063 C1527.7813,481.5469 1528.0156,481.6563 1528.2344,481.6563 C1528.5,481.6563 1528.7656,481.5156 1528.9375,481.2969 C1529.0469,481.1406 1529.0781,480.9531 1529.0781,480.5313 L1529.0781,479.1094 C1529.0781,478.6719 1529.0625,478.5469 1528.9688,478.3906 C1528.8125,478.125 1528.5313,477.9844 1528.2344,477.9844 C1527.9375,477.9844 1527.7344,478.0781 1527.5156,478.3906 L1527.3438,478.3125 Z "/><text fill="#000000" font-family="sans-serif" font-size="20" lengthAdjust="spacingAndGlyphs" textLength="20" x="1539" y="489.5645">xf</text><line style="stroke: #A80036; stroke-width: 1.5;" x1="1511" x2="1561" y1="499.2813" y2="499.2813"/><line style="stroke: #A80036; stroke-width: 1.5;" x1="1511" x2="1561" y1="507.2813" y2="507.2813"/><polygon fill="#FFFFFF" filter="url(#f1ojqzjhqb7p1s)" points="850.5,457,907.5,457,914.5,486.2813,921.5,486.2813,921.5,523.5625,850.5,523.5625,850.5,457" style="stroke: #000000; stroke-width: 1.5;"/><line style="stroke: #000000; stroke-width: 1.5;" x1="850.5" x2="914.5" y1="486.2813" y2="486.2813"/><text fill="#000000" font-family="sans-serif" font-size="20" font-weight="bold" lengthAdjust="spacingAndGlyphs" textLength="51" x="854.5" y="477.5645">port</text><polygon fill="#FFFFFF" filter="url(#f1ojqzjhqb7p1s)" points="155.5,457,212.5,457,219.5,486.2813,226.5,486.2813,226.5,523.5625,155.5,523.5625,155.5,457" style="stroke: #000000; stroke-width: 1.5;"/><line style="stroke: #000000; stroke-width: 1.5;" x1="155.5" x2="219.5" y1="486.2813" y2="486.2813"/><text fill="#000000" font-family="sans-serif" font-size="20" font-weight="bold" lengthAdjust="spacingAndGlyphs" textLength="51" x="159.5" y="477.5645">ugfx</text><polygon fill="#FFFFFF" filter="url(#f1ojqzjhqb7p1s)" points="38,457,106,457,113,486.2813,120,486.2813,120,523.5625,38,523.5625,38,457" style="stroke: #000000; stroke-width: 1.5;"/><line style="stroke: #000000; stroke-width: 1.5;" x1="38" x2="113" y1="486.2813" y2="486.2813"/><text fill="#000000" font-family="sans-serif" font-size="20" font-weight="bold" lengthAdjust="spacingAndGlyphs" textLength="62" x="42" y="477.5645">trace</text><polygon fill="#FFFFFF" filter="url(#f1ojqzjhqb7p1s)" points="262,457,352,457,359,486.2813,366,486.2813,366,523.5625,262,523.5625,262,457" style="stroke: #000000; stroke-width: 1.5;"/><line style="stroke: #000000; stroke-width: 1.5;" x1="262" x2="359" y1="486.2813" y2="486.2813"/><text fill="#000000" font-family="sans-serif" font-size="20" font-weight="bold" lengthAdjust="spacingAndGlyphs" textLength="84" x="266" y="477.5645">sig-gen</text><!--MD5=[d89af3b4a5657e2b0973f7b0dc6146e2]
class cmsis_os--><rect fill="#FEFECE" filter="url(#f1ojqzjhqb7p1s)" height="49.2813" id="cmsis_os" style="stroke: #A80036; stroke-width: 1.5;" width="121" x="1215.5" y="92"/><ellipse cx="1230.5" cy="108.6406" fill="#ADD1B2" rx="11" ry="11" style="stroke: #A80036; stroke-width: 1.0;"/><path d="M1232.8438,104.3125 C1231.9063,103.875 1231.3125,103.7344 1230.4375,103.7344 C1227.8125,103.7344 1225.8125,105.8125 1225.8125,108.5313 L1225.8125,109.6563 C1225.8125,112.2344 1227.9219,114.125 1230.8125,114.125 C1232.0313,114.125 1233.1875,113.8281 1233.9375,113.2813 C1234.5156,112.875 1234.8438,112.4219 1234.8438,112.0313 C1234.8438,111.5781 1234.4531,111.1875 1233.9844,111.1875 C1233.7656,111.1875 1233.5625,111.2656 1233.375,111.4531 C1232.9219,111.9375 1232.9219,111.9375 1232.7344,112.0313 C1232.3125,112.2969 1231.625,112.4219 1230.8594,112.4219 C1228.8125,112.4219 1227.5156,111.3281 1227.5156,109.625 L1227.5156,108.5313 C1227.5156,106.75 1228.7656,105.4375 1230.5,105.4375 C1231.0781,105.4375 1231.6875,105.5938 1232.1563,105.8438 C1232.6406,106.125 1232.8125,106.3438 1232.9063,106.75 C1232.9688,107.1563 1233,107.2813 1233.1406,107.4063 C1233.2813,107.5469 1233.5156,107.6563 1233.7344,107.6563 C1234,107.6563 1234.2656,107.5156 1234.4375,107.2969 C1234.5469,107.1406 1234.5781,106.9531 1234.5781,106.5313 L1234.5781,105.1094 C1234.5781,104.6719 1234.5625,104.5469 1234.4688,104.3906 C1234.3125,104.125 1234.0313,103.9844 1233.7344,103.9844 C1233.4375,103.9844 1233.2344,104.0781 1233.0156,104.3906 L1232.8438,104.3125 Z "/><text fill="#000000" font-family="sans-serif" font-size="20" lengthAdjust="spacingAndGlyphs" textLength="89" x="1244.5" y="115.5645">cmsis_os</text><line style="stroke: #A80036; stroke-width: 1.5;" x1="1216.5" x2="1335.5" y1="125.2813" y2="125.2813"/><line style="stroke: #A80036; stroke-width: 1.5;" x1="1216.5" x2="1335.5" y1="133.2813" y2="133.2813"/><!--MD5=[e069c589a9a25d835b696ee4ebea2fed]
link Factory to Gui--><path d="M491.6009,152.8019 C491.6009,152.8019 477.674,202.93 474,228 C462.349,307.496 462.501,401.97 463.708,452.779 " fill="none" id="Factory-Gui" style="stroke: #A80036; stroke-width: 1.0;"/><polygon fill="#A80036" points="464.068,465.902,467.8202,456.7959,463.9312,460.9039,459.8232,457.0148,464.068,465.902" style="stroke: #A80036; stroke-width: 1.0;"/><line style="stroke: #A80036; stroke-width: 1.0;" x1="463.9312" x2="463.712" y1="460.9039" y2="452.9075"/><polygon fill="#A80036" points="495.102,141.324,489.5255,145.8959,491.6009,152.8019,497.1774,148.23,495.102,141.324" style="stroke: #A80036; stroke-width: 1.0;"/><text fill="#000000" font-family="sans-serif" font-size="20" lengthAdjust="spacingAndGlyphs" textLength="42" x="475" y="259.5645">_gui</text><!--MD5=[cc4d92d4c9a4680734e8ff3f48ac338b]
link Factory to OscilloscopeController--><path d="M540.8357,148.7964 C540.8357,148.7964 600.79,198.388 626.347,219.528 " fill="none" id="Factory-OscilloscopeController" style="stroke: #A80036; stroke-width: 1.0;"/><polygon fill="#A80036" points="636.424,227.863,632.0378,219.0447,632.571,224.6764,626.9393,225.2096,636.424,227.863" style="stroke: #A80036; stroke-width: 1.0;"/><line style="stroke: #A80036; stroke-width: 1.0;" x1="632.571" x2="626.407" y1="224.6764" y2="219.5775"/><polygon fill="#A80036" points="531.589,141.148,533.6629,148.0545,540.8357,148.7964,538.7618,141.89,531.589,141.148" style="stroke: #A80036; stroke-width: 1.0;"/><text fill="#000000" font-family="sans-serif" font-size="20" lengthAdjust="spacingAndGlyphs" textLength="233" x="600" y="192.5645">_oscilloscopeController</text><!--MD5=[5a4309d0265b361f9356d12762906011]
link Factory to sig-gen--><path d="M466.933,141.004 C422.672,172.469 350.589,232.991 327,307 C311.646,355.172 310.36,413.994 311.583,451.599 " fill="none" id="Factory-&gt;sig-gen" style="stroke: #A80036; stroke-width: 1.0; stroke-dasharray: 7.0,7.0;"/><polygon fill="#A80036" points="311.78,456.99,315.4482,447.8497,311.5972,451.9933,307.4536,448.1423,311.78,456.99" style="stroke: #A80036; stroke-width: 1.0;"/><text fill="#000000" font-family="sans-serif" font-size="20" lengthAdjust="spacingAndGlyphs" textLength="84" x="372" y="259.5645">includes</text><!--MD5=[2e10edff8ff093911f9a840904413bdb]
link OscilloscopeController to Gui--><path d="M606.6469,283.58 C606.6469,283.58 585.467,298.569 577,307 C533.265,350.552 499.149,414.377 480.571,453.859 " fill="none" id="OscilloscopeController-Gui" style="stroke: #A80036; stroke-width: 1.0;"/><polygon fill="#A80036" points="475.093,465.766,482.4889,459.2621,477.1831,461.2238,475.2213,455.918,475.093,465.766" style="stroke: #A80036; stroke-width: 1.0;"/><line style="stroke: #A80036; stroke-width: 1.0;" x1="477.1831" x2="480.5265" y1="461.2238" y2="453.956"/><polygon fill="#FFFFFF" points="616.821,277.217,609.613,277.0071,606.6469,283.58,613.8549,283.7899,616.821,277.217" style="stroke: #A80036; stroke-width: 1.0;"/><text fill="#000000" font-family="sans-serif" font-size="20" lengthAdjust="spacingAndGlyphs" textLength="58" x="578" y="326.5645">_pGui</text><!--MD5=[bbe1fef7b9d57b4362aaa0d1d1f01399]
link OscilloscopeController to GuiObserver--><path d="M666.556,277.305 C669.562,333.816 673.283,480.001 641,596 C634.559,619.144 622.864,643.108 611.909,662.521 " fill="none" id="OscilloscopeController-&gt;GuiObserver" style="stroke: #A80036; stroke-width: 1.0;"/><polygon fill="none" points="617.839,666.245,601.626,679.889,605.792,659.113,617.839,666.245" style="stroke: #A80036; stroke-width: 1.0;"/><!--MD5=[caa25477449d51f304b58726fd868984]
link Gui to GuiObserver--><path d="M466.8686,527.0783 C466.8686,527.0783 474.311,575.043 485,596 C499.766,624.949 524.711,651.613 546.116,671.144 " fill="none" id="Gui-GuiObserver" style="stroke: #A80036; stroke-width: 1.0;"/><polygon fill="#A80036" points="555.964,679.868,551.8792,670.9062,552.2212,676.5527,546.5747,676.8946,555.964,679.868" style="stroke: #A80036; stroke-width: 1.0;"/><line style="stroke: #A80036; stroke-width: 1.0;" x1="552.2212" x2="546.233" y1="676.5527" y2="671.248"/><polygon fill="#FFFFFF" points="465.778,515.128,462.3398,521.4667,466.8686,527.0783,470.3067,520.7396,465.778,515.128" style="stroke: #A80036; stroke-width: 1.0;"/><text fill="#000000" font-family="sans-serif" font-size="20" lengthAdjust="spacingAndGlyphs" textLength="150" x="486" y="590.5645">_pGuiObserver</text><!--MD5=[73fd33ac713e8bcbd3c2a8a724818a65]
link Gui to ugfx--><path d="M458.885,465.948 C449.051,432.369 426.183,373.396 382,348 C328.825,317.435 294.364,312.997 244,348 C210.67,371.164 198.258,417.916 193.66,451.56 " fill="none" id="Gui-&gt;ugfx" style="stroke: #A80036; stroke-width: 1.0; stroke-dasharray: 7.0,7.0;"/><polygon fill="#A80036" points="192.987,456.842,198.0915,448.4192,193.6184,451.882,190.1556,447.4089,192.987,456.842" style="stroke: #A80036; stroke-width: 1.0;"/><text fill="#000000" font-family="sans-serif" font-size="20" lengthAdjust="spacingAndGlyphs" textLength="84" x="336" y="326.5645">includes</text><!--MD5=[d39ecd3857d583cab3ac8ebe28581a91]
reverse link src.main to Factory--><path d="M1006.2,116.5 C904.908,116.5 665.829,116.5 557.747,116.5 " fill="none" id="src.main&lt;-Factory" style="stroke: #A80036; stroke-width: 1.0; stroke-dasharray: 7.0,7.0;"/><polygon fill="#A80036" points="1011.21,116.5,1002.21,112.5,1006.21,116.5,1002.21,120.5,1011.21,116.5" style="stroke: #A80036; stroke-width: 1.0;"/><text fill="#000000" font-family="sans-serif" font-size="20" lengthAdjust="spacingAndGlyphs" textLength="84" x="742.5" y="108.0645">includes</text><!--MD5=[a85447f22853adac655d66e06b5c6485]
link OscilloscopeController to Behaviour--><path d="M794.138,255.684 C964.569,260.966 1252.86,278.948 1337,340 C1371.67,365.154 1390.03,411.702 1399.33,446.201 " fill="none" id="OscilloscopeController-&gt;Behaviour" style="stroke: #A80036; stroke-width: 1.0;"/><polygon fill="none" points="1406.18,444.748,1404.01,465.826,1392.56,447.996,1406.18,444.748" style="stroke: #A80036; stroke-width: 1.0;"/><!--MD5=[25f2118237f84e5b9c1412e5930f5f42]
link Gui to Behaviour--><path d="M498.573,468.374 C563.454,427.096 711.988,339.704 851.5,308.5 C952.992,285.799 1229.87,255.759 1319.5,308.5 C1368.42,337.287 1390.84,402.228 1400.73,446.223 " fill="none" id="Gui-&gt;Behaviour" style="stroke: #A80036; stroke-width: 1.0;"/><polygon fill="none" points="1407.6,444.908,1404.63,465.888,1393.87,447.636,1407.6,444.908" style="stroke: #A80036; stroke-width: 1.0;"/><!--MD5=[3b20253f08cb4a255323747d6d194fad]
link src.main to xf--><path d="M1094.65,133.555 C1193.39,172.377 1437.61,273.065 1493,340 C1521.85,374.858 1531.35,428.121 1534.48,460.769 " fill="none" id="src.main-&gt;xf" style="stroke: #A80036; stroke-width: 1.0; stroke-dasharray: 7.0,7.0;"/><polygon fill="#A80036" points="1534.93,465.826,1538.118,456.5074,1534.4876,460.8456,1530.1494,457.2152,1534.93,465.826" style="stroke: #A80036; stroke-width: 1.0;"/><text fill="#000000" font-family="sans-serif" font-size="20" lengthAdjust="spacingAndGlyphs" textLength="84" x="1404" y="259.5645">includes</text><!--MD5=[d4a576a6a4b88133d454a36c34550586]
link src.main to cmsis_os--><path d="M1094.68,116.5 C1127,116.5 1172.42,116.5 1209.72,116.5 " fill="none" id="src.main-&gt;cmsis_os" style="stroke: #A80036; stroke-width: 1.0; stroke-dasharray: 7.0,7.0;"/><polygon fill="#A80036" points="1215.16,116.5,1206.16,112.5,1210.16,116.5,1206.16,120.5,1215.16,116.5" style="stroke: #A80036; stroke-width: 1.0;"/><text fill="#000000" font-family="sans-serif" font-size="20" lengthAdjust="spacingAndGlyphs" textLength="84" x="1113" y="108.0645">includes</text><!--MD5=[961dfa050680485d0710505deaf95894]
@startuml
skinparam classFontSize 20
skinparam ArrowFontSize 20
skinparam packageFontSize 20
package app {
  package interface{
    class GuiObserver
  }
  class Factory
  class Gui
  class OscilloscopeController

  Factory *- -> Gui:_gui
  Factory *- -> OscilloscopeController:_oscilloscopeController
  Factory .> "sig-gen":includes
  OscilloscopeController o- -> Gui : _pGui
  OscilloscopeController-|>GuiObserver
  Gui o- -> GuiObserver:_pGuiObserver
  Gui .> "ugfx":includes
  Factory.up>src.main:includes

}

package xf {
  package config{}
  package core{}
  package doxygen{}
  package include{
  class Behaviour
  OscilloscopeController-|>Behaviour
  Gui-|>Behaviour
  class xf
  src.main.>xf:includes
  }
  package port{}
}
package src{
  class main
}

package mdw{
  package ugfx{

  }
  package trace{

  }
  package sig-gen{

  }
}
package middlewares{
 src.main.>cmsis_os:includes
}
@enduml

PlantUML version 1.2020.09beta17(Unknown compile time)
(GPL source distribution)
Java Runtime: Java(TM) SE Runtime Environment
JVM: Java HotSpot(TM) 64-Bit Server VM
Java Version: 14.0.1+7
Operating System: Linux
Default Encoding: UTF-8
Language: en
Country: US
--></g></svg>