<?xml version="1.0" encoding="UTF-8" standalone="no"?><svg xmlns="http://www.w3.org/2000/svg" xmlns:xlink="http://www.w3.org/1999/xlink" contentScriptType="application/ecmascript" contentStyleType="text/css" height="175px" preserveAspectRatio="none" style="width:581px;height:175px;" version="1.1" viewBox="0 0 581 175" width="581px" zoomAndPan="magnify"><defs/><g><line style="stroke: #000000; stroke-width: 1.7;" x1="10" x2="10" y1="10" y2="115.9375"/><line style="stroke: #000000; stroke-width: 1.7;" x1="564" x2="564" y1="10" y2="115.9375"/><line style="stroke: #AAAAAA; stroke-width: 0.5; stroke-dasharray: 3.0,5.0;" x1="59" x2="59" y1="10" y2="115.9375"/><line style="stroke: #AAAAAA; stroke-width: 0.5; stroke-dasharray: 3.0,5.0;" x1="159" x2="159" y1="10" y2="115.9375"/><line style="stroke: #AAAAAA; stroke-width: 0.5; stroke-dasharray: 3.0,5.0;" x1="259" x2="259" y1="10" y2="115.9375"/><line style="stroke: #AAAAAA; stroke-width: 0.5; stroke-dasharray: 3.0,5.0;" x1="359" x2="359" y1="10" y2="115.9375"/><line style="stroke: #AAAAAA; stroke-width: 0.5; stroke-dasharray: 3.0,5.0;" x1="459" x2="459" y1="10" y2="115.9375"/><line style="stroke: #AAAAAA; stroke-width: 0.5; stroke-dasharray: 3.0,5.0;" x1="559" x2="559" y1="10" y2="115.9375"/><line style="stroke: #000000; stroke-width: 1.7;" x1="10" x2="564" y1="10" y2="10"/><text fill="#000000" font-family="sans-serif" font-size="12" lengthAdjust="spacingAndGlyphs" textLength="15" x="15" y="21.1387">uC</text><line style="stroke: #000000; stroke-width: 1.0;" x1="10" x2="31" y1="24.9688" y2="24.9688"/><line style="stroke: #000000; stroke-width: 1.0;" x1="31" x2="41" y1="24.9688" y2="10"/><text fill="#000000" font-family="sans-serif" font-size="12" lengthAdjust="spacingAndGlyphs" textLength="15" x="15" y="55.123">XF</text><text fill="#000000" font-family="sans-serif" font-size="12" lengthAdjust="spacingAndGlyphs" textLength="44" x="15" y="35.123">Display</text><line style="stroke: #038048; stroke-width: 1.5;" x1="59" x2="69" y1="49.9688" y2="49.9688"/><line style="stroke: #038048; stroke-width: 1.5;" x1="69" x2="269" y1="29.9688" y2="29.9688"/><line style="stroke: #038048; stroke-width: 1.5;" x1="269" x2="279" y1="49.9688" y2="49.9688"/><line style="stroke: #038048; stroke-width: 1.5;" x1="279" x2="479" y1="29.9688" y2="29.9688"/><line style="stroke: #038048; stroke-width: 1.5;" x1="479" x2="489" y1="49.9688" y2="49.9688"/><line style="stroke: #038048; stroke-width: 1.5;" x1="489" x2="559" y1="29.9688" y2="29.9688"/><line style="stroke: #038048; stroke-width: 1.5;" x1="69" x2="69" y1="29.9688" y2="49.9688"/><line style="stroke: #038048; stroke-width: 1.5;" x1="269" x2="269" y1="29.9688" y2="49.9688"/><line style="stroke: #038048; stroke-width: 1.5;" x1="279" x2="279" y1="29.9688" y2="49.9688"/><line style="stroke: #038048; stroke-width: 1.5;" x1="479" x2="479" y1="29.9688" y2="49.9688"/><line style="stroke: #038048; stroke-width: 1.5;" x1="489" x2="489" y1="29.9688" y2="49.9688"/><line style="stroke: #000000; stroke-width: 1.7;" x1="10" x2="564" y1="61.9688" y2="61.9688"/><text fill="#000000" font-family="sans-serif" font-size="12" lengthAdjust="spacingAndGlyphs" textLength="25" x="15" y="73.1074">ADC</text><line style="stroke: #000000; stroke-width: 1.0;" x1="10" x2="41" y1="76.9375" y2="76.9375"/><line style="stroke: #000000; stroke-width: 1.0;" x1="41" x2="51" y1="76.9375" y2="61.9688"/><polygon fill="#D7E0F2" points="71,81.9375,559,81.9375,559,105.9375,71,105.9375,59,93.9375" style="stroke: #D7E0F2; stroke-width: 1.5;"/><path d="M559,81.9375 L71,81.9375 L59,93.9375 L71,105.9375 L559,105.9375 " fill="#D7E0F2" style="stroke: #038048; stroke-width: 1.5;"/><text fill="#000000" font-family="sans-serif" font-size="12" lengthAdjust="spacingAndGlyphs" textLength="54" x="71" y="98.0918">Converts</text><line style="stroke: #000000; stroke-width: 2.0;" x1="59" x2="59" y1="115.9375" y2="120.9375"/><line style="stroke: #000000; stroke-width: 2.0;" x1="159" x2="159" y1="115.9375" y2="120.9375"/><line style="stroke: #000000; stroke-width: 2.0;" x1="259" x2="259" y1="115.9375" y2="120.9375"/><line style="stroke: #000000; stroke-width: 2.0;" x1="359" x2="359" y1="115.9375" y2="120.9375"/><line style="stroke: #000000; stroke-width: 2.0;" x1="459" x2="459" y1="115.9375" y2="120.9375"/><line style="stroke: #000000; stroke-width: 2.0;" x1="559" x2="559" y1="115.9375" y2="120.9375"/><line style="stroke: #000000; stroke-width: 2.0;" x1="59" x2="559" y1="115.9375" y2="115.9375"/><text fill="#000000" font-family="sans-serif" font-size="12" lengthAdjust="spacingAndGlyphs" textLength="8" x="55" y="133.0762">0</text><text fill="#000000" font-family="sans-serif" font-size="12" lengthAdjust="spacingAndGlyphs" textLength="15" x="151.5" y="133.0762">10</text><text fill="#000000" font-family="sans-serif" font-size="12" lengthAdjust="spacingAndGlyphs" textLength="16" x="251" y="133.0762">20</text><text fill="#000000" font-family="sans-serif" font-size="12" lengthAdjust="spacingAndGlyphs" textLength="16" x="351" y="133.0762">30</text><text fill="#000000" font-family="sans-serif" font-size="12" lengthAdjust="spacingAndGlyphs" textLength="16" x="451" y="133.0762">40</text><text fill="#000000" font-family="sans-serif" font-size="12" lengthAdjust="spacingAndGlyphs" textLength="16" x="551" y="133.0762">50</text><rect fill="#DDDDDD" height="26.2969" rx="5" ry="5" style="stroke: #000000; stroke-width: 1.0;" width="96" x="238.5" y="137.9063"/><text fill="#000000" font-family="sans-serif" font-size="14" lengthAdjust="spacingAndGlyphs" textLength="84" x="244.5" y="155.9014">Temps [ms]</text><!--MD5=[4e47b92fa61e733eee0c1b5076657440]
@startuml
legend
Temps [ms]
end legend

robust "uC" as cpu
concise "ADC" as adc
scale 10 as 100 pixels

@0
cpu is XF
adc is Converts
@1
cpu is Display
@21
cpu is XF
@22
cpu is Display
@42
cpu is XF
@43
cpu is Display
@enduml

PlantUML version 1.2020.09beta17(Unknown compile time)
(GPL source distribution)
Java Runtime: Java(TM) SE Runtime Environment
JVM: Java HotSpot(TM) 64-Bit Server VM
Java Version: 14.0.1+7
Operating System: Linux
Default Encoding: UTF-8
Language: en
Country: US
--></g></svg>